<?xml version="1.0" encoding="utf-8"?>
<svg width="20px" height="20px" viewBox="0 0 20 20" version="1.1" xmlns:xlink="http://www.w3.org/1999/xlink" xmlns="http://www.w3.org/2000/svg">
  <g id="iconuser" fill-opacity="1">
    <path d="M0 0L20 0L20 20L0 20L0 0Z" id="iconuser" fill="none" fill-rule="evenodd" stroke="none" />
    <g id="user" transform="translate(3.3333333 2.5)">
      <path d="M13.3333 15L13.3333 13.3333C13.3333 11.4924 11.8409 10 10 10L3.33333 10C1.49238 10 0 11.4924 0 13.3333L0 15" id="Path" fill="none" fill-rule="evenodd" stroke="#000000" stroke-width="2" stroke-linecap="round" stroke-linejoin="round" />
      <path d="M6.66667 6.66667C8.50762 6.66667 10 5.17428 10 3.33333C10 1.49238 8.50762 0 6.66667 0C4.82572 0 3.33333 1.49238 3.33333 3.33333C3.33333 5.17428 4.82572 6.66667 6.66667 6.66667Z" id="Oval" fill="none" fill-rule="evenodd" stroke="#000000" stroke-width="2" stroke-linecap="round" stroke-linejoin="round" />
    </g>
  </g>
</svg>